<?xml version="1.0" encoding="UTF-8"?>
<svg xmlns="http://www.w3.org/2000/svg" width="720" height="240" viewBox="0 0 720 240" role="img"><title>Build Receipt — design reference</title><desc>A build or deployment completion receipt, supplied by the caller. Static mockup, not a DevTools screenshot. Sample values are fictional.</desc><rect x="0" y="0" width="720" height="240" fill="#111c19" rx="12" stroke="none"/><rect x="4" y="4" width="712" height="232" fill="#efeee5" rx="9" stroke="none"/><rect x="4" y="14" width="5" height="212" fill="#32816b" rx="2" stroke="none"/><line x1="32" y1="108" x2="677" y2="108" stroke="#9ba99f" stroke-width="1" stroke-dasharray="3 4"/><line x1="32" y1="187" x2="677" y2="187" stroke="#9ba99f" stroke-width="1" stroke-dasharray="3 4"/><rect x="540" y="34" width="123" height="40" fill="#d9e9db" rx="7" stroke="#a9c7b2"/><path d="M551 52l5 5 8-11" fill="none" stroke="#27775c" stroke-width="2"/><line x1="216" y1="126" x2="216" y2="168" stroke="#d4d8cc" stroke-width="1"/><line x1="417" y1="126" x2="417" y2="168" stroke="#d4d8cc" stroke-width="1"/><path d="M710 12l10 6-10 6" fill="#111c19" stroke="#111c19" stroke-width="1"/><path d="M710 24l10 6-10 6" fill="#111c19" stroke="#111c19" stroke-width="1"/><path d="M710 36l10 6-10 6" fill="#111c19" stroke="#111c19" stroke-width="1"/><path d="M710 48l10 6-10 6" fill="#111c19" stroke="#111c19" stroke-width="1"/><path d="M710 60l10 6-10 6" fill="#111c19" stroke="#111c19" stroke-width="1"/><path d="M710 72l10 6-10 6" fill="#111c19" stroke="#111c19" stroke-width="1"/><path d="M710 84l10 6-10 6" fill="#111c19" stroke="#111c19" stroke-width="1"/><path d="M710 96l10 6-10 6" fill="#111c19" stroke="#111c19" stroke-width="1"/><path d="M710 108l10 6-10 6" fill="#111c19" stroke="#111c19" stroke-width="1"/><path d="M710 120l10 6-10 6" fill="#111c19" stroke="#111c19" stroke-width="1"/><path d="M710 132l10 6-10 6" fill="#111c19" stroke="#111c19" stroke-width="1"/><path d="M710 144l10 6-10 6" fill="#111c19" stroke="#111c19" stroke-width="1"/><path d="M710 156l10 6-10 6" fill="#111c19" stroke="#111c19" stroke-width="1"/><path d="M710 168l10 6-10 6" fill="#111c19" stroke="#111c19" stroke-width="1"/><path d="M710 180l10 6-10 6" fill="#111c19" stroke="#111c19" stroke-width="1"/><path d="M710 192l10 6-10 6" fill="#111c19" stroke="#111c19" stroke-width="1"/><path d="M710 204l10 6-10 6" fill="#111c19" stroke="#111c19" stroke-width="1"/><path d="M710 216l10 6-10 6" fill="#111c19" stroke="#111c19" stroke-width="1"/><text data-slot="eyebrow" x="36" y="36" fill="#65716d" font-size="11" font-family="DejaVu Sans Mono, monospace" font-weight="700" letter-spacing="2" text-anchor="start">BUILD / RECEIPT</text><text data-slot="project" x="36" y="81" fill="#1c2a26" font-size="32" font-family="DejaVu Sans, Arial, sans-serif" font-weight="700" letter-spacing="0" text-anchor="start">atlas-web</text><text data-slot="outcome" x="568" y="61" fill="#156751" font-size="12" font-family="DejaVu Sans Mono, monospace" font-weight="700" letter-spacing="0" text-anchor="start">PASSED</text><text data-slot="revisionLabel" x="36" y="132" fill="#63736c" font-size="11" font-family="DejaVu Sans Mono, monospace" font-weight="400" letter-spacing="0" text-anchor="start">REVISION</text><text data-slot="durationLabel" x="237" y="132" fill="#63736c" font-size="11" font-family="DejaVu Sans Mono, monospace" font-weight="400" letter-spacing="0" text-anchor="start">DURATION</text><text data-slot="checksLabel" x="438" y="132" fill="#63736c" font-size="11" font-family="DejaVu Sans Mono, monospace" font-weight="400" letter-spacing="0" text-anchor="start">CHECKS</text><text data-slot="revision" x="36" y="161" fill="#263831" font-size="21" font-family="DejaVu Sans Mono, monospace" font-weight="700" letter-spacing="0" text-anchor="start">a1b2c3d</text><text data-slot="duration" x="237" y="161" fill="#263831" font-size="21" font-family="DejaVu Sans Mono, monospace" font-weight="700" letter-spacing="0" text-anchor="start">2.34 s</text><text data-slot="checks" x="438" y="161" fill="#263831" font-size="21" font-family="DejaVu Sans Mono, monospace" font-weight="700" letter-spacing="0" text-anchor="start">48 / 48</text><text data-slot="environment" x="36" y="214" fill="#50675e" font-size="11" font-family="DejaVu Sans Mono, monospace" font-weight="400" letter-spacing="0" text-anchor="start">ENVIRONMENT  preview</text><text data-slot="footer" x="654" y="214" fill="#50675e" font-size="10" font-family="DejaVu Sans Mono, monospace" font-weight="400" letter-spacing="0" text-anchor="end">COMPLETED SNAPSHOT</text></svg>
